<?xml version="1.0" encoding="UTF-8"?>
<svg id="Layer_2" data-name="Layer 2" xmlns="http://www.w3.org/2000/svg" xmlns:xlink="http://www.w3.org/1999/xlink" viewBox="0 0 566.93 304.93">
  <defs>
    <style>
      .cls-1, .cls-2 {
        fill: none;
      }

      .cls-3 {
        fill: #ec6c1f;
      }

      .cls-4 {
        fill: #e6e6e6;
      }

      .cls-5 {
        fill: #fff;
      }

      .cls-6 {
        fill: #b3b3b3;
      }

      .cls-7 {
        fill: #85754e;
      }

      .cls-8 {
        fill: #ccc;
      }

      .cls-9 {
        fill: #c4a600;
      }

      .cls-10, .cls-11 {
        fill: #231815;
      }

      .cls-12 {
        fill: #3e3a39;
      }

      .cls-13 {
        fill: #637325;
      }

      .cls-14 {
        fill: #595757;
      }

      .cls-11 {
        stroke: #231815;
        stroke-miterlimit: 10;
        stroke-width: .25px;
      }

      .cls-2 {
        clip-path: url(#clippath);
      }
    </style>
    <clipPath id="clippath">
      <rect class="cls-1" width="555.83" height="304.93"/>
    </clipPath>
  </defs>
  <g id="_레이어_1" data-name="레이어 1">
    <g>
      <g>
        <g class="cls-2">
          <polygon class="cls-14" points="520.59 329.31 510.01 329.31 529.74 -26.37 540.32 -26.37 520.59 329.31"/>
          <polygon class="cls-14" points="578.55 70.43 -43.35 17.71 -43.35 7.14 578.55 59.86 578.55 70.43"/>
          <g>
            <path class="cls-12" d="m162.65,73.3l-.47.87c-.69-.35-1.67-1.31-2.25-2.65-.49,1.2-1.48,2.32-2.33,2.79l-.54-.8c.98-.59,2.38-1.83,2.41-4.31v-.84s.98-.01.98-.01v.87c-.04,2.39,1.15,3.48,2.2,4.09Zm2.13,4.92l-5.95-.06.04-3.25h.92s-.02,2.3-.02,2.3l5.03.05v.96Zm-.16-2.64h-.92s.08-7.49.08-7.49h.92s-.08,7.49-.08,7.49Z"/>
            <path class="cls-12" d="m169.94,75.6l-.49.84c-.69-.52-1.33-1.54-1.75-2.81-.52,1.53-1.44,2.66-1.96,3.04l-.54-.8c.66-.47,2.02-1.94,2.05-5.11l.02-1.82h.97s-.02,1.79-.02,1.79c-.03,2.97.88,4.14,1.72,4.87Zm1.34,2.45h-.89s.06-5.2.06-5.2h-1.33s.01-1.05.01-1.05h1.33s.04-3.41.04-3.41h.89s-.1,9.65-.1,9.65Zm1.74.49h-.89s.11-10.36.11-10.36h.89s-.11,10.36-.11,10.36Z"/>
            <path class="cls-12" d="m179.47,78.14h-.89s.04-3.51.04-3.51h-1.31s.01-.98.01-.98h1.31s.02-1.81.02-1.81h-1.15s0-.47,0-.47c-.41,2.23-1.53,4.12-3.17,5.35l-.5-.77c1.6-1.19,2.57-2.97,2.8-5.43l-2.24-.02v-.96s3.28.04,3.28.04c0,.45-.04.88-.09,1.3h1.07s.03-2.37.03-2.37h.89s-.1,9.64-.1,9.64Zm1.73.49h-.89s.11-10.36.11-10.36h.89s-.11,10.36-.11,10.36Z"/>
            <path class="cls-12" d="m160.82,87.88l-3.41-.04.06-5.29h.92s-.02,1.72-.02,1.72l1.58.02.02-1.71h.91s-.06,5.29-.06,5.29Zm3.57,4.66h-.92s.03-2.66.03-2.66l-5.21-.06v-.96s6.14.07,6.14.07l-.04,3.61Zm-4.47-5.63l.02-1.65-1.58-.02-.02,1.65,1.58.02Zm4.54,1.43h-.89s.03-2.6.03-2.6h-.99s-.03,2.58-.03,2.58h-.89s.06-5.99.06-5.99h.89s-.03,2.35-.03,2.35h.99s.03-2.51.03-2.51h.89s-.07,6.16-.07,6.16Z"/>
            <path class="cls-12" d="m171.13,90.91c-1.15.07-2.26.09-3.34.08l-2.52-.03v-.97s2.49.03,2.49.03v-.87s.98,0,.98,0v.87c.99,0,1.86-.04,2.39-.08v.96Zm-.48-5.81l-4.92-.05v-.94s4.93.05,4.93.05v.94Zm-.32,2.12c-.01,1-.87,1.67-2.1,1.65-1.22-.01-2.06-.71-2.05-1.71.01-.94.86-1.67,2.08-1.65,1.23.01,2.08.77,2.07,1.71Zm-.93-3.74l-2.4-.03v-.93s2.41.03,2.41.03v.93Zm.01,3.73c0-.53-.46-.87-1.16-.88-.68,0-1.15.33-1.15.84,0,.52.46.85,1.14.86.7,0,1.18-.32,1.18-.82Zm4.23.68h-1.3s-.05,4.73-.05,4.73h-.92s.11-10.36.11-10.36h.92s-.05,4.59-.05,4.59h1.3s-.01,1.03-.01,1.03Z"/>
            <path class="cls-12" d="m179.04,87.08l-.4.91c-.8-.23-1.72-.98-2.23-2.09-.51,1.11-1.5,1.95-2.35,2.32l-.5-.87c1.09-.48,2.35-1.57,2.37-3.36v-.08l-1.78-.02v-.96s4.53.05,4.53.05v.96s-1.76-.02-1.76-.02v.08c-.02,1.68.98,2.62,2.11,3.08Zm2.01,5.52l-5.87-.06.04-3.75,5.87.06-.04,3.75Zm-.91-.97l.02-1.83-4.03-.04-.02,1.83,4.03.04Zm.96-3.31h-.92s.03-2.42.03-2.42l-1.71-.02v-.96s1.72.02,1.72.02l.03-2.58h.92s-.06,5.96-.06,5.96Z"/>
          </g>
          <g>
            <path class="cls-13" d="m185.38,228.2c-.05,4.14-3.43,7.45-7.57,7.41-4.13-.04-7.45-3.43-7.41-7.56.04-4.14,3.43-7.45,7.57-7.41,4.14.04,7.45,3.43,7.41,7.56Z"/>
            <path class="cls-5" d="m180.59,230.2c-.02,1.94-1.64,2.68-2.92,2.66-.95,0-2.02-.37-2.55-.69l.24-1.38c.48.24,1.25.69,2.24.7.89,0,1.71-.21,1.73-1.32.01-1.22-.91-1.53-1.77-1.53h-.99s.01-1.38.01-1.38h.9c1.04.02,1.61-.55,1.62-1.57,0-.81-.53-1.08-1.41-1.09-.84,0-1.87.65-2.05.8l-.21-1.39c.54-.35,1.34-.79,2.41-.78,1.09.01,2.54.73,2.52,2.52-.01,1.05-.54,1.77-1.2,2.16.75.38,1.44,1.06,1.43,2.3Z"/>
            <g>
              <path class="cls-12" d="m190.43,228.92l-3.88-.04.06-5.31h.88s-.02,1.7-.02,1.7l2.12.02.02-1.69h.87s-.06,5.32-.06,5.32Zm-.86-.93l.02-1.77-2.12-.02-.02,1.77,2.12.02Zm3.71,4.94l-5.8-.06.03-3.19h.92s-.02,2.27-.02,2.27l4.88.05v.92Zm-.17-2.51h-.88s.04-3.6.04-3.6l-1.47-.02v-.99s1.48.02,1.48.02l.03-2.63h.88s-.08,7.22-.08,7.22Z"/>
              <path class="cls-12" d="m203.61,228.66l-3.52-.04v.72s2.44.03,2.44.03l-.02,2.22-4.88-.05v.72s5.08.06,5.08.06v.81s-6.06-.07-6.06-.07l.03-2.29,4.9.05v-.66s-4.91-.05-4.91-.05v-.8s2.47.03,2.47.03v-.72s-3.51-.04-3.51-.04v-.83s8,.09,8,.09v.83Zm-.57-2.07l-.37.8c-.87.02-2.52-.65-3.02-1.44-.42.82-2.29,1.37-3.09,1.38l-.32-.82c1.91-.13,2.71-.97,2.78-1.16l-2.39-.03v-.82s6.07.06,6.07.06v.82s-2.41-.03-2.41-.03c.08.25,1.1,1.13,2.76,1.24Zm-1.86-2.66l-3.04-.03v-.82s3.05.03,3.05.03v.82Z"/>
              <path class="cls-12" d="m211.53,229.06l-3.73-.04-.05,4.27h-.9s.05-4.28.05-4.28l-3.35-.04v-.92s5.77.06,5.77.06c.18-1.21.28-2.2.33-3.26l-5.13-.06v-.92s6.12.07,6.12.07c-.03,1.27-.18,2.57-.42,4.19h1.32s0,.94,0,.94Z"/>
            </g>
          </g>
          <g>
            <path class="cls-12" d="m73.69,67.68l-.49.9c-.53-.32-1.31-1.1-1.79-2.41-.42,1.16-1.22,2.17-1.93,2.63l-.61-.83c.71-.52,2.06-1.68,2.09-4.33v-.91s.98-.01.98-.01v.94c-.04,2.51,1.1,3.63,1.75,4.03Zm3.24,4.92l-6.13-.07.03-3.23h.92s-.02,2.28-.02,2.28l5.21.06v.96Zm-1.93-2.79h-.89s.04-3.94.04-3.94h-1.35s.01-1,.01-1h1.35s.02-2.25.02-2.25h.89s-.08,7.18-.08,7.18Zm1.71.25h-.89s.08-7.59.08-7.59h.89s-.08,7.59-.08,7.59Z"/>
            <path class="cls-12" d="m85.44,71.51l-8.31-.09v-.96s8.32.09,8.32.09v.96Zm-.98-2.41l-6.16-.07.06-5.51,6.06.06v.96s-5.15-.06-5.15-.06v1.32s5.06.06,5.06.06v.94s-5.09-.06-5.09-.06v1.32s5.23.06,5.23.06v.96Z"/>
            <path class="cls-12" d="m91.09,67.72c-1.15.2-2.44.21-3.74.19h-1.25s.03-2.83.03-2.83l3.06.03v-1.07s-3.07-.03-3.07-.03v-.91s4.01.04,4.01.04l-.03,2.85-3.06-.03v1.01s.33,0,.33,0c1.34.01,2.59,0,3.73-.18v.93Zm1.98,5.18l-6.01-.07.03-2.56,4.81.05v-.81s-4.82-.05-4.82-.05v-.87s5.84.06,5.84.06l-.03,2.5-4.78-.05v.87s4.98.05,4.98.05v.87Zm-.13-4.78h-.92s.03-2.33.03-2.33l-1.47-.02v-.96s1.48.02,1.48.02l.02-2.17h.92s-.06,5.46-.06,5.46Z"/>
            <path class="cls-12" d="m99.47,70.15l-.48.86c-1.01-.55-1.82-1.83-2.27-3.17-.51,1.44-1.55,2.81-2.44,3.34l-.53-.83c1.26-.84,2.47-2.31,2.51-5.45l.02-1.62h.97s-.02,1.63-.02,1.63c-.04,3.52,1.45,4.68,2.25,5.23Zm1.85,2.95h-.92s.11-10.36.11-10.36h.92s-.11,10.36-.11,10.36Z"/>
            <path class="cls-12" d="m107.7,70.87c-.53.06-1.73.11-2.44.1l-2.51-.03.08-7.13,4.29.05v.96s-3.38-.04-3.38-.04l-.02,1.99,3.14.03v1s-3.15-.03-3.15-.03l-.02,2.18h.53c.98.02,2.52.02,3.5-.08v1Zm1.63,2.31h-.92s.11-10.36.11-10.36h.92s-.11,10.36-.11,10.36Z"/>
            <path class="cls-12" d="m67.81,84.53c-.54.06-1.61.11-2.32.1l-2.48-.03.08-7.13,4.16.05v.96s-3.25-.04-3.25-.04l-.02,1.99,2.98.03v1s-2.99-.03-2.99-.03l-.02,2.18h.5c.98.02,2.4.02,3.38-.09v1Zm1.81,2.32h-.92s.06-5.62.06-5.62h-1.36s.01-.98.01-.98h1.36s.04-3.76.04-3.76h.92s-.11,10.36-.11,10.36Z"/>
            <path class="cls-12" d="m75.24,84.71l-4.03-.04.07-6.9,4.03.04-.07,6.9Zm-.9-.97l.05-4.98-2.2-.02-.05,4.98,2.2.02Zm3.51,3.19h-.92s.11-10.36.11-10.36h.92s-.11,10.36-.11,10.36Z"/>
            <path class="cls-12" d="m84.44,81.38c-.56.09-2.02.22-4.99.19l.05-4.52h.92s-.04,3.56-.04,3.56c.83,0,2.87-.04,4.07-.18v.95Zm1.93,5.53l-6.03-.06.03-2.67,4.86.05v-.89s-4.87-.05-4.87-.05v-.88s5.82.06,5.82.06l-.03,2.61-4.86-.05v.95s5.09.05,5.09.05v.88Zm-.16-4.93h-.92s.03-2.66.03-2.66l-2.43-.03v-.96s2.44.03,2.44.03l.02-1.7h.92s-.06,5.32-.06,5.32Z"/>
            <path class="cls-12" d="m89.5,87.53h-.61c-.84-1.14-1.85-2.79-1.82-5.71.03-2.93,1.07-4.58,1.94-5.7h.61c-1.22,1.99-1.62,3.71-1.64,5.71-.02,1.99.34,3.68,1.52,5.7Z"/>
            <path class="cls-12" d="m97.68,86.32l-8.31-.09v-.96s3.68.04,3.68.04v-1.14s.99,0,.99,0v1.14s3.66.04,3.66.04v.96Zm-.66-6.55l-6.86-.07v-.94s6.87.07,6.87.07v.94Zm-.6,2.31c-.01,1.14-1.3,1.77-2.87,1.75-1.57-.02-2.84-.68-2.82-1.81.01-1.13,1.31-1.77,2.86-1.75,1.58.02,2.85.69,2.83,1.81Zm-1.1,0c0-.73-.88-.9-1.74-.91-.85,0-1.76.17-1.76.87,0,.69.89.88,1.74.89.85,0,1.76-.16,1.76-.85Zm0-4.06l-3.45-.04v-.96s3.46.04,3.46.04v.96Z"/>
            <path class="cls-12" d="m103.27,81.63c-.55.09-2.04.22-5,.19l.05-4.57h.92s-.04,3.62-.04,3.62c.83,0,2.89-.04,4.08-.18v.94Zm1.48,5.48l-5.65-.06.04-4,5.65.06-.04,4Zm-.93-.97l.02-2.07-3.77-.04-.02,2.07,3.77.04Zm2.22-5.88h-1.24s-.03,2.38-.03,2.38h-.92s.06-5.76.06-5.76h.92s-.03,2.41-.03,2.41h1.24s-.01.97-.01.97Z"/>
            <path class="cls-12" d="m111.69,82.17l-.47.87c-.69-.35-1.67-1.31-2.26-2.65-.49,1.2-1.47,2.32-2.32,2.79l-.54-.8c.98-.59,2.38-1.83,2.41-4.31v-.84s.98-.01.98-.01v.87c-.04,2.39,1.14,3.48,2.2,4.09Zm2.05,4.92l-5.96-.06.04-3.25h.92s-.02,2.3-.02,2.3l5.04.05v.96Zm-.19-2.64h-.91s.04-4.1.04-4.1l-1.73-.02v-1.01s1.74.02,1.74.02l.03-2.38h.91s-.08,7.49-.08,7.49Z"/>
            <path class="cls-12" d="m116.57,82.14c-.03,2.92-1.07,4.55-1.94,5.66h-.61c1.22-2,1.62-3.68,1.64-5.67.02-2-.34-3.73-1.52-5.74h.61c.84,1.14,1.85,2.82,1.82,5.75Z"/>
          </g>
          <g>
            <path class="cls-12" d="m467.24,40.85l-2.21-.17-.28,3.67-.91-.07.28-3.67-2.1-.16-.27,3.55-.92-.07.27-3.55-2.16-.17.07-.97,8.29.63-.07.97Zm-.79-2.45l-6.22-.48.31-4.03.91.07-.24,3.07,5.31.41-.07.96Z"/>
            <path class="cls-12" d="m475.3,43.78l-8.29-.63.07-.96,3.12.24.19-2.48.94.07-.19,2.48,4.23.32-.07.96Zm-.34-7.99c-.21,1.89-.53,4.24-.95,6.09l-.92-.07c.16-.82.31-1.73.45-2.62-.91.02-2.99-.07-5.23-.24l.05-.96c2.56.18,4.46.26,5.32.23.08-.53.14-1.06.18-1.55l-5.31-.41.07-.96,6.32.48Z"/>
            <path class="cls-12" d="m480.28,39.8c-.21,2.77-1.43,3.71-2.44,3.63-1.01-.08-2.09-1.18-1.88-3.96.22-2.86,1.51-3.69,2.46-3.62.97.07,2.08,1.12,1.86,3.95Zm-.91-.08c.12-1.58-.22-2.8-1.03-2.86-.8-.06-1.36,1.11-1.48,2.67-.12,1.55.24,2.83,1.05,2.89.81.06,1.34-1.16,1.46-2.7Zm4.63,1.14l-1.35-.1-.38,4.93-.92-.07.79-10.32.92.07-.34,4.37,1.35.1-.08,1.02Z"/>
            <path class="cls-12" d="m487.7,41.47l-3.4-.26.4-5.27.92.07-.13,1.71,1.57.12.13-1.71.91.07-.4,5.27Zm3.26,4.88l-.92-.07.2-2.64-5.19-.4.07-.96,6.11.47-.28,3.6Zm-4.09-5.91l.13-1.65-1.57-.12-.13,1.65,1.57.12Zm4.44,1.73l-.89-.07.2-2.58-.98-.07-.2,2.58-.89-.07.46-5.96.89.07-.18,2.34.98.07.19-2.51.89.07-.47,6.13Z"/>
            <path class="cls-12" d="m497.79,45.17c-1.15,0-2.26-.05-3.34-.14l-2.51-.19.07-.97,2.47.19.07-.86.97.07-.07.86c.99.06,1.87.08,2.4.08l-.07.96Zm-.1-5.83l-4.9-.37.07-.93,4.9.38-.07.93Zm-.46,2.09c-.08.99-.98,1.61-2.2,1.51-1.22-.09-2.01-.85-1.93-1.84.07-.93.97-1.61,2.19-1.51,1.23.09,2.02.91,1.95,1.84Zm-.91-.07c.04-.52-.4-.9-1.1-.95-.67-.05-1.17.25-1.21.76-.04.51.4.88,1.08.93.7.05,1.19-.24,1.23-.74Zm.23-3.72l-2.4-.18.07-.92,2.4.18-.07.92Zm3.95,4.68l-1.29-.1-.36,4.73-.92-.07.79-10.32.92.07-.35,4.57,1.29.1-.08,1.02Z"/>
            <path class="cls-12" d="m505.93,41.87l-.46.88c-.79-.28-1.65-1.09-2.09-2.23-.58,1.07-1.63,1.85-2.5,2.16l-.44-.9c1.12-.41,2.45-1.41,2.59-3.2v-.08s-1.77-.14-1.77-.14l.07-.96,4.51.35-.07.96-1.74-.13v.08c-.13,1.67.79,2.68,1.9,3.21Zm1.65,5.64l-5.86-.45.29-3.74,5.86.45-.29,3.74Zm-.84-1.03l.14-1.82-4.02-.31-.14,1.82,4.02.31Zm1.17-3.24l-.92-.07.18-2.41-1.7-.13.07-.96,1.7.13.2-2.57.92.07-.45,5.94Z"/>
          </g>
          <g>
            <path class="cls-12" d="m63.86,286.2l-.48.86c-1.01-.55-1.82-1.82-2.27-3.17-.51,1.44-1.55,2.81-2.44,3.34l-.54-.83c1.26-.84,2.47-2.3,2.51-5.45l.02-1.62h.97s-.02,1.63-.02,1.63c-.04,3.52,1.45,4.68,2.25,5.23Zm1.76,2.95h-.92s.06-5.79.06-5.79l-1.84-.02v-1.01s1.85.02,1.85.02l.04-3.56h.92s-.11,10.36-.11,10.36Z"/>
            <path class="cls-12" d="m74.61,284.1l-3.64-.04v.82s2.51.03,2.51.03l-.03,2.46-5.09-.05v.88s5.28.06,5.28.06v.87s-6.28-.07-6.28-.07l.03-2.58,5.09.06v-.77s-5.1-.06-5.1-.06v-.86s2.59.03,2.59.03v-.82s-3.68-.04-3.68-.04v-.89s8.32.09,8.32.09v.89Zm-1-3.45c-.01,1.17-1.1,1.84-3.14,1.82-2.04-.02-3.11-.74-3.09-1.89.01-1.08,1.1-1.78,3.13-1.76,2.04.02,3.11.78,3.1,1.83Zm-1.02.02c0-.57-.69-1.02-2.09-1.03-1.43-.01-2.11.4-2.11.97,0,.57.66,1.05,2.09,1.07,1.4.02,2.11-.44,2.11-1.01Z"/>
            <path class="cls-12" d="m80.35,283.8l-.44.91c-.7-.33-1.66-1.19-2.29-2.57-.5,1.18-1.41,2.27-2.36,2.78l-.53-.84c.85-.45,2.38-1.64,2.41-3.94v-.91s.98-.01.98-.01v.94c-.03,2.14,1.49,3.35,2.23,3.65Zm2,3.65c-.01,1.16-1,2.06-3.11,2.04-2.01-.02-3.1-.87-3.08-2.11.01-1.34,1.29-2.1,3.13-2.08,1.97.02,3.08.85,3.06,2.14Zm-.99.01c0-.88-1.01-1.22-2.08-1.23-1.07-.01-2.1.29-2.11,1.17,0,.83,1.01,1.18,2.08,1.2,1.16.01,2.09-.34,2.1-1.14Zm.84-2.34h-.91s.03-2.99.03-2.99l-1.73-.02v-1.01s1.74.02,1.74.02l.02-2.17h.91s-.07,6.16-.07,6.16Z"/>
            <path class="cls-12" d="m91.09,288.12l-8.31-.09v-.96s3.68.04,3.68.04l.02-1.92h.95s-.02,1.93-.02,1.93l3.7.04v.96Zm-1.11-3.33l-6.02-.07.05-4.81,6.02.07-.05,4.81Zm-.92-.97l.03-2.87-4.18-.05-.03,2.87,4.18.05Z"/>
            <path class="cls-12" d="m95.79,284.77l-4.04-.04.06-5.19h.92s-.02,1.76-.02,1.76l2.21.02.02-1.75h.91s-.06,5.2-.06,5.2Zm2.86,2.94c-.01,1.18-1.09,1.98-3.16,1.96-1.92-.02-3.09-.78-3.08-2.02.01-1.35,1.21-2.04,3.12-2.02,1.96.02,3.13.8,3.12,2.09Zm-3.76-3.91l.02-1.51-2.21-.02-.02,1.51,2.21.02Zm2.77,3.88c0-.8-1.12-1.11-2.15-1.13-1.05-.01-2.11.28-2.12,1.08,0,.8,1.05,1.14,2.1,1.15,1.16.01,2.16-.29,2.17-1.1Zm.92-2.16h-.92s.02-1.61.02-1.61l-1.51-.02v-.93s1.52.02,1.52.02v-1.08s-1.5-.02-1.5-.02v-.93s1.52.02,1.52.02l.02-1.83h.92s-.07,6.37-.07,6.37Z"/>
            <path class="cls-12" d="m105.86,284.35c-1.11.1-1.87.11-2.98.1l-.02,1.88h-.92s.02-1.88.02-1.88l-2.32-.02v-.94s3.09.03,3.09.03c1.06.01,2.16,0,3.14-.08v.93Zm-1-3.38c-.01,1.09-.82,1.85-2.25,1.84-1.43-.02-2.22-.81-2.21-1.89.01-1,.83-1.84,2.25-1.83,1.46.02,2.22.87,2.21,1.88Zm2.29,8.38l-6.09-.07.03-2.64h.92s-.02,1.68-.02,1.68l5.17.06v.96Zm-3.17-8.39c0-.46-.42-.99-1.35-1-.92-.01-1.35.51-1.35.97,0,.43.44.95,1.34.96.92.01,1.36-.5,1.36-.93Zm2.97,6.21h-.92s.01-1.12.01-1.12l-1.89-.02v-.91s1.9.02,1.9.02l.06-5.91h.92s-.09,7.94-.09,7.94Z"/>
          </g>
          <rect class="cls-12" x="167.38" y="59.55" width="3.61" height="3.61" transform="translate(6.17 137.61) rotate(-45)"/>
          <rect class="cls-12" x="513.58" y="41.56" width="3.62" height="3.62" transform="translate(120.14 376.96) rotate(-44.97)"/>
          <rect class="cls-12" x="87.6" y="54.38" width="3.61" height="3.61" transform="translate(-13.54 79.68) rotate(-45)"/>
          <rect class="cls-12" x="51.6" y="280.36" width="3.61" height="3.61" transform="translate(-183.81 120.31) rotate(-44.98)"/>
          <g>
            <path class="cls-12" d="m324.11,85.42l-.48.86c-1.01-.55-1.82-1.83-2.27-3.17-.51,1.44-1.55,2.81-2.44,3.34l-.53-.83c1.26-.84,2.47-2.31,2.51-5.45l.02-1.62h.97s-.02,1.63-.02,1.63c-.04,3.52,1.45,4.68,2.25,5.23Zm1.76,2.95h-.92s.06-5.79.06-5.79l-1.84-.02v-1.01s1.85.02,1.85.02l.04-3.56h.92s-.11,10.36-.11,10.36Z"/>
            <path class="cls-12" d="m334.85,83.32l-3.64-.04v.82s2.51.03,2.51.03l-.03,2.46-5.09-.06v.88s5.28.06,5.28.06v.87s-6.28-.07-6.28-.07l.03-2.58,5.09.05v-.77s-5.1-.05-5.1-.05v-.86s2.59.03,2.59.03v-.82s-3.68-.04-3.68-.04v-.89s8.32.09,8.32.09v.89Zm-1-3.44c-.01,1.17-1.1,1.84-3.14,1.82-2.04-.02-3.11-.74-3.1-1.89.01-1.08,1.1-1.78,3.13-1.76,2.04.02,3.11.78,3.1,1.83Zm-1.01.02c0-.57-.69-1.02-2.09-1.03-1.43-.02-2.11.4-2.11.97,0,.57.66,1.05,2.09,1.07,1.4.01,2.11-.44,2.11-1.01Z"/>
            <path class="cls-12" d="m343.07,87.19l-8.31-.09v-.96s3.07.03,3.07.03l.04-3.62h.94s-.04,3.63-.04,3.63l4.32.05v.96Zm-1-7.82c-.09,1.9-.25,3.83-.54,5.7h-.92c.21-1.66.38-3.19.43-4.74l-5.19-.06v-.97s6.22.07,6.22.07Z"/>
            <path class="cls-12" d="m351.36,84.49l-8.31-.09v-.96s3.7.04,3.7.04l.02-1.62h.94s-.02,1.63-.02,1.63l3.69.04v.96Zm-.52-2.82l-.37.85c-1.54-.29-2.62-1.39-3.22-2.44-.67,1.13-1.9,2.19-3.27,2.38l-.35-.85c1.82-.38,3.14-1.73,3.15-2.99v-.33s.98-.01.98-.01v.35c-.02,1.3,1.38,2.65,3.08,3.03Zm-.61,6.96h-.91s.02-2.21.02-2.21l-5.34-.06v-.96s6.26.07,6.26.07l-.03,3.16Z"/>
            <path class="cls-12" d="m356.05,86.5l-4.03-.04.08-7.23h.92s-.03,2.48-.03,2.48l2.2.02.03-2.47h.92s-.08,7.24-.08,7.24Zm-.91-.98l.03-2.79-2.2-.02-.03,2.79,2.2.02Zm3.61,3.2h-.92s.06-5.41.06-5.41l-1.46-.02v-1.03s1.47.02,1.47.02l.04-3.91h.92s-.11,10.36-.11,10.36Z"/>
            <path class="cls-12" d="m367.86,87.37l-8.31-.09v-.96s8.32.09,8.32.09v.96Zm-.47-3.47l-.4.95c-1.51-.47-2.6-1.72-3.22-3.18-.66,1.53-1.89,2.77-3.28,3.11l-.38-.93c1.78-.5,3.18-2.19,3.2-4.07v-.66s.98-.01.98-.01v.68c-.03,1.84,1.39,3.53,3.11,4.11Z"/>
            <path class="cls-12" d="m311.25,100c-.53.06-1.61.11-2.32.1l-2.48-.03.08-7.12,4.16.05v.96s-3.25-.04-3.25-.04l-.02,1.99,2.98.03v1s-2.99-.03-2.99-.03l-.02,2.18h.5c.98.02,2.4.02,3.38-.09v1Zm1.81,2.32h-.92s.06-5.62.06-5.62h-1.36s.01-.98.01-.98h1.36s.04-3.76.04-3.76h.92s-.11,10.36-.11,10.36Z"/>
            <path class="cls-12" d="m318.68,100.18l-4.03-.04.07-6.9,4.03.04-.07,6.9Zm-.9-.97l.05-4.98-2.2-.02-.05,4.98,2.2.02Zm3.51,3.19h-.92s.11-10.36.11-10.36h.92s-.11,10.36-.11,10.36Z"/>
            <path class="cls-12" d="m327.88,96.85c-.56.09-2.02.22-4.98.19l.05-4.52h.92s-.04,3.56-.04,3.56c.83,0,2.87-.04,4.07-.18v.95Zm1.93,5.53l-6.03-.06.03-2.67,4.86.05v-.89s-4.87-.05-4.87-.05v-.88s5.82.06,5.82.06l-.03,2.61-4.86-.05v.95s5.09.05,5.09.05v.88Zm-.16-4.92h-.92s.03-2.66.03-2.66l-2.43-.03v-.96s2.44.03,2.44.03l.02-1.7h.92s-.06,5.32-.06,5.32Z"/>
            <path class="cls-12" d="m332.94,103h-.61c-.84-1.14-1.85-2.79-1.82-5.71.03-2.93,1.07-4.58,1.94-5.7h.61c-1.22,1.99-1.62,3.7-1.64,5.71-.02,1.99.34,3.68,1.51,5.7Z"/>
            <path class="cls-12" d="m337.84,92.93c-.12,3.06-2,4.9-4.32,5.41l-.25-.82c1.51-.42,3.18-1.36,3.47-3.65l-2.95-.03v-.95s4.05.04,4.05.04Zm2.76,7.74c-.01,1.24-1.07,2.12-3.1,2.1-1.93-.02-3.07-.85-3.05-2.17.01-1.34,1.27-2.14,3.1-2.12,1.99.02,3.07.89,3.05,2.19Zm-.97,0c0-.88-1.03-1.24-2.09-1.25-1.08-.01-2.11.36-2.11,1.2-.01.9,1.01,1.24,2.09,1.25,1.06.01,2.1-.32,2.11-1.2Zm.82-2.24h-.92s.01-1.36.01-1.36l-1.58-.02v-.96s1.59.02,1.59.02v-1.21s-1.43-.02-1.43-.02v-.96s1.45.02,1.45.02l.02-1.7h.92s-.07,6.19-.07,6.19Z"/>
            <path class="cls-12" d="m349.41,99.29l-3.7-.04-.04,3.41h-.92s.04-3.42.04-3.42l-3.7-.04v-.96s8.32.09,8.32.09v.96Zm-1.1-2.11l-6.06-.07.05-4.62h.92s-.01,1.29-.01,1.29l4.22.05v-1.28s.93.01.93.01l-.05,4.62Zm-.91-.97v-1.42s-4.21-.05-4.21-.05v1.42s4.21.05,4.21.05Z"/>
            <path class="cls-12" d="m353.36,92.18l-3.41,10.89h-.86s3.39-10.9,3.39-10.9h.88Z"/>
            <path class="cls-12" d="m357.98,95.29c-.01,1.39-.96,2.5-2.29,2.48-1.33-.01-2.26-1.14-2.24-2.53.01-1.39.97-2.47,2.3-2.46,1.33.01,2.25,1.11,2.23,2.51Zm-.95-.01c0-.83-.45-1.52-1.3-1.53-.84,0-1.33.67-1.34,1.5-.01.9.46,1.54,1.31,1.55.84.01,1.32-.62,1.33-1.52Zm3.62,5.65c-.01,1.34-1.16,2.07-3.14,2.05-1.96-.02-3.1-.83-3.09-2.12.01-1.22,1.13-2.08,3.14-2.06,2.01.02,3.11.91,3.09,2.13Zm-.99,0c0-.63-.78-1.17-2.11-1.18-1.36-.01-2.15.41-2.16,1.14,0,.68.73,1.17,2.14,1.18,1.38.02,2.12-.38,2.13-1.14Zm.88-2.26h-.92s.02-1.67.02-1.67l-1.44-.02.02-.97,1.44.02v-1.22s-1.43-.02-1.43-.02v-.96s1.45.02,1.45.02v-1.37s.93.01.93.01l-.07,6.19Z"/>
            <path class="cls-12" d="m369.54,98.46l-8.31-.09v-.95s3.71.04,3.71.04v-1.17s-2.56-.03-2.56-.03l.04-3.42,6.07.07v.95s-5.15-.06-5.15-.06l-.02,1.52,5.24.06v.95s-2.65-.03-2.65-.03v1.17s3.65.04,3.65.04v.95Zm-.96,2.67c-.01,1.24-1.28,1.98-3.26,1.96-1.87-.02-3.21-.73-3.2-2.03.01-1.3,1.4-1.95,3.25-1.93,2,.02,3.22.76,3.21,2Zm-1.05,0c0-.8-1.1-1.12-2.16-1.14-1.07-.01-2.18.28-2.19,1.08,0,.8,1.09,1.1,2.17,1.11,1.07.01,2.18-.26,2.19-1.05Z"/>
            <path class="cls-12" d="m375.25,97.85l-.47.87c-.69-.35-1.68-1.31-2.26-2.65-.49,1.2-1.47,2.32-2.32,2.79l-.53-.8c.98-.59,2.38-1.83,2.41-4.31v-.84s.98-.01.98-.01v.87c-.04,2.39,1.15,3.48,2.2,4.09Zm2.05,4.92l-5.96-.06.03-3.25h.92s-.02,2.3-.02,2.3l5.04.05v.96Zm-.19-2.64h-.91s.04-4.1.04-4.1l-1.73-.02v-1.01s1.74.02,1.74.02l.03-2.38h.91s-.08,7.49-.08,7.49Z"/>
            <path class="cls-12" d="m380.13,97.82c-.03,2.92-1.07,4.55-1.94,5.66h-.61c1.22-2,1.62-3.68,1.64-5.67.02-2-.33-3.73-1.51-5.74h.61c.84,1.14,1.85,2.82,1.81,5.75Z"/>
          </g>
          <rect class="cls-12" x="341.1" y="70.48" width="3.61" height="3.61" transform="translate(49.24 263.51) rotate(-44.97)"/>
          <polygon class="cls-3" points="221.38 26.37 244.01 38.17 171.51 214.95 166.74 209.53 153.46 192.78 221.38 26.37"/>
          <g>
            <path class="cls-10" d="m171.11,183.2c3.48,1.42,5.15,5.32,3.76,8.73-1.39,3.41-5.31,5.02-8.79,3.6-3.48-1.42-5.16-5.32-3.77-8.73,1.39-3.41,5.33-5.01,8.81-3.59Zm-.02,10.19c.46-.42,1.15-1.34,1.52-2.21.53-1.25.62-3.11-.99-3.76-1.1-.45-2.06.05-2.66.74,0-.84-.41-1.67-1.35-2.06-1.43-.58-2.57.61-3.01,1.67-.41,1-.38,1.95-.3,2.6l1.07.2c-.08-.42-.16-1.53.15-2.28.36-.87.87-1.43,1.62-1.13.92.37,1.2,1.23.76,2.32l-.13.32.97.4.16-.4c.39-.95,1.18-1.74,2.26-1.3,1.06.43.81,1.58.4,2.5-.38.85-1,1.43-1.38,1.81l.9.58Z"/>
            <path class="cls-10" d="m177.31,168.02c3.48,1.42,5.15,5.32,3.76,8.73-1.39,3.41-5.31,5.02-8.79,3.6-3.48-1.42-5.17-5.32-3.77-8.73,1.39-3.41,5.33-5.01,8.81-3.59Zm-7.33,7.17l.99.4,1.68-4.11,5.81,5.62.47-1.15-5.84-5.55-.99-.4-2.12,5.19Z"/>
            <path class="cls-10" d="m183.51,152.84c3.48,1.42,5.15,5.32,3.76,8.73-1.39,3.41-5.31,5.02-8.79,3.6-3.48-1.42-5.17-5.32-3.77-8.73,1.39-3.41,5.33-5.01,8.81-3.59Zm.43,10.04c.28-.3.62-.83.88-1.46.88-2.15.19-3.9-2.89-5.16-2.16-.88-4.07-.81-4.86,1.12-.67,1.63.02,3.15,1.56,3.78,1.83.75,3.04-.2,3.58-1.53.22-.54.26-1.4-.11-2.02,1.37.61,2.54,1.49,1.79,3.32-.23.57-.53.95-.85,1.34l.89.6Zm-5.9-5.08c.44-1.09,1.44-1.2,2.36-.82,1,.41,1.25,1.26.84,2.27-.46,1.12-1.28,1.22-2.23.83-1-.41-1.4-1.24-.98-2.27Z"/>
            <path class="cls-10" d="m182.7,141.53l-1.64,4.02-1.18-.48,1.64-4.02,1.17.48Zm2.92-1.13l-3.27,7.99-1.15-.47,3.27-7.99,1.15.47Zm2.56,1.83c1.39.57,1.57,2.37.82,4.21-.75,1.83-2.14,2.99-3.53,2.42-1.37-.56-1.56-2.39-.82-4.2.75-1.83,2.16-2.99,3.54-2.43Zm-.51,1.28c-.89-.36-1.51.59-1.92,1.6-.41,1-.6,2.14.25,2.49.85.35,1.49-.62,1.89-1.61.41-.99.62-2.13-.23-2.48Zm6.29-.69l-3.96,9.68-1.17-.48,1.75-4.27-1.39-.57.46-1.14,1.39.57,1.75-4.27,1.17.48Z"/>
            <path class="cls-10" d="m191.5,133.82l.85.97c-.75.64-2.38,1.33-4.3,1.36,1.25,1.16,2.16,2.85,2.35,4.07l-1.23.23c-.27-1.44-1.14-3.68-4.18-4.92l-1.03-.42.43-1.14,1.06.43c2.92,1.2,4.81.35,6.04-.59Zm3.66-1.06l-.43,1.06-5-2.04-.82,2.01-1.23-.5.82-2.01-2.91-1.19.43-1.06,9.14,3.74Zm3.33,1.06l-2.84,6.94-3.97-1.62.44-1.07,2.79,1.14,2.4-5.87,1.18.48Z"/>
            <path class="cls-10" d="m192.51,117.28c2.29,1.02,4.59,2.16,6.75,3.41l-.44,1.07c-1.93-1.04-3.73-2-5.61-2.8l-2.47,6.04-1.19-.49,2.96-7.23Zm10.06,2.63l-3.96,9.68-1.17-.48,1.46-3.56-4.43-1.81.45-1.09,4.43,1.81,2.05-5.03,1.17.48Z"/>
            <path class="cls-10" d="m199.47,107.94l.88.84c-1.06,1.66-2.92,2.39-4.48,2.58,1.08,1.33,1.81,3.29,1.4,4.99h-1.2c.38-2.32-.68-4.52-2.21-5.15l-.4-.16.44-1.15.43.17c1.59.65,3.9-.33,5.15-2.13Zm3.7.76l-3.96,9.68-1.17-.48,1.75-4.29-1.98-.81.45-1.09,1.98.81,1.75-4.29,1.18.48Zm4.55,3.34l-.43,1.06-2.69-1.1-2.54,6.22-1.18-.48,2.97-7.28,3.87,1.58Z"/>
            <path class="cls-10" d="m207.89,104l-1.92,4.7-8.84-3.61.44-1.07,3.02,1.24,1.04-2.56-3.02-1.23.44-1.07,8.84,3.61Zm3.98-2.08l-.44,1.07-6.6-2.7-.7,1.7-1.26-.52.7-1.7-4.78-1.96.44-1.07,12.65,5.17Zm-5.61,2.67l-3.41-1.39-1.04,2.56,3.41,1.39,1.04-2.56Z"/>
            <path class="cls-10" d="m210.02,89.26l.97.93c-1.28,1.54-3.31,2.21-5.39,2.22,1.57,1.52,2.53,3.56,2.3,5.35h-1.32c.21-2.33-1.22-4.79-3.51-5.72l-.8-.33.44-1.15.83.34c2.25.92,4.98.08,6.49-1.64Zm4.48,1.14l-3.96,9.68-1.18-.48,3.96-9.68,1.17.48Z"/>
            <path class="cls-10" d="m216.2,83.3c-.17.66-.61,1.93-.95,2.76l-1.18,2.88-8.71-3.56,1.98-4.84,1.18.48-1.54,3.77,2.43.99,1.42-3.47,1.22.5-1.42,3.47,2.66,1.09.24-.58c.46-1.14,1.13-2.8,1.45-4l1.22.5Zm3.68-.99l-.44,1.07-6.87-2.81-.65,1.58-1.17-.48.65-1.58-4.61-1.89.44-1.07,12.65,5.17Z"/>
            <path class="cls-10" d="m219.94,74.5l-1.92,4.69-8.44-3.45,1.92-4.69,8.44,3.45Zm3.93-1.97l-.44,1.07-12.65-5.17.44-1.07,12.65,5.17Zm-5.54,2.55l-6.09-2.49-1.05,2.57,6.09,2.49,1.05-2.57Z"/>
            <path class="cls-10" d="m220.19,61.92c-.15.69-.66,2.47-2.07,5.92l-5.53-2.26.44-1.07,4.34,1.77c.38-.97,1.28-3.38,1.66-4.84l1.16.47Zm1.56-1.77l-.44,1.07-3.24-1.32-1.16,2.83-1.18-.48,1.16-2.83-2.08-.85.44-1.07,6.49,2.65Zm6.12,2.21l-2.87,7.02-3.27-1.33,2.31-5.66-1.09-.44-2.32,5.68-1.07-.44,2.76-6.76,3.2,1.31-2.31,5.66,1.16.47,2.43-5.94,1.07.44Z"/>
            <path class="cls-10" d="m221.56,51.97c1.7.7,2.62,2.34,1.99,3.89-.63,1.55-2.44,2.09-4.15,1.39-1.7-.7-2.59-2.34-1.96-3.89.63-1.55,2.41-2.09,4.11-1.39Zm-.45,1.1c-1.02-.42-2.07-.21-2.47.77-.4.98.2,1.88,1.22,2.29,1.1.45,2.1.21,2.51-.77.4-.98-.15-1.85-1.25-2.3Zm5.61-2.53l-.44,1.07-1.89-.77-.68,1.66-1.17-.49.67-1.65-1.4-.57-.69,1.68-1.18-.47.69-1.69-1.75-.72.44-1.07,7.39,3.02Zm5.26,2.15l-.43,1.06-3.37-1.38-2.43,5.94-1.17-.48,2.86-7,4.54,1.86Z"/>
          </g>
          <rect class="cls-9" x="228.9" y="-29.97" width="17.68" height="132.55" transform="translate(180.76 269.95) rotate(-84.98)"/>
          <path class="cls-13" d="m76.83,260.51h-33c-.33-4.67-.67-9.33-1-14l110.79-53.77,17.95,22.19c-31.58,15.19-63.15,30.38-94.73,45.58Z"/>
          <g>
            <rect class="cls-12" x="491.39" y="246.6" width="3.61" height="3.61" transform="translate(-31.18 421.53) rotate(-45)"/>
            <g>
              <path class="cls-12" d="m484.98,223.74c-.8-.4-1.63-1.2-2-2.16-.26,1.03-1.16,1.95-2.12,2.45l-.55-.77c1.26-.61,2.19-1.78,2.19-3.32v-.87h.91v.83c0,1.55,1.08,2.69,2.09,3.07l-.52.77Zm-3.26,4.54v-3.49h5.6v3.49h-5.6Zm4.71-2.7h-3.82v1.92h3.82v-1.92Zm.89-3.72v2.43h-.9v-5.67h.9v2.41h1.31v.83h-1.31Z"/>
              <path class="cls-12" d="m489.71,226.54l-.56-.76c2.1-1.1,3.38-3.17,3.55-5.28h-3.1v-.84h4.05c-.06,3.11-1.54,5.42-3.94,6.88Zm3.96-3.17v-.83h1.9v-3.92h.89v9.79h-.89v-5.04h-1.9Z"/>
              <path class="cls-12" d="m503.66,225.77c-.92.17-2.36.3-4.15.32h-1.1v-3.85h3.3v-1.94h-3.34v-.81h4.23v3.54h-3.3v2.22h.26c1.23,0,2.94-.08,4.01-.3l.09.82Zm1.58-7.16v9.79h-.9v-9.79h.9Z"/>
              <path class="cls-12" d="m484.01,241.85v-3.24h-3.52v-.82h7.97v.82h-3.55v3.24h-.9Zm-2.8-5.04v-.81h1.45l-.25-2.12.92-.13.18,2.25h1.91l.27-2.25.9.16-.33,2.09h1.44v.81h-6.49Zm.04-3.44v-.82h6.41v.82h-6.41Z"/>
              <path class="cls-12" d="m492.74,238.32v-.92h-3.51v-.82h7.97v.82h-3.55v.92h-.9Zm3.68-2.32c-1.39-.22-2.75-1.06-3.21-1.97-.37.93-1.69,1.76-3.19,1.97l-.39-.78c1.38-.12,2.83-.87,3.09-2h-2.72v-.81h6.43v.81h-2.71c.28,1.14,1.87,1.89,3.1,1.99l-.4.79Zm-.18,5.89c-1.24-.15-2.64-1.02-3.05-1.8-.39.81-1.75,1.62-3.01,1.78l-.46-.8c1.6-.08,3.03-1.02,3.03-2.16v-.2h.93v.2c0,1.15,1.52,2.07,3,2.18l-.43.8Z"/>
              <path class="cls-12" d="m502.3,232.85c-.07,2.67-1.69,4.59-4,5.34l-.45-.81c1.83-.49,3.23-2,3.47-3.72h-3.02v-.82h4Zm-3.1,8.74v-3.07h.89v2.26h4.95v.81h-5.84Zm5.57-5.72v3.4h-.9v-7.21h.9v2.98h1.32v.83h-1.32Z"/>
            </g>
          </g>
          <g>
            <path class="cls-10" d="m176.2,242.33h-3.11v-.86h4.2v.65l-2.44,6.33h-1.11l2.46-6.12Z"/>
            <path class="cls-10" d="m177.88,248.58v-.86h3.36v-1.03c-1.34-.12-2.17-.72-2.17-1.62,0-1,1.06-1.65,2.68-1.65s2.68.65,2.68,1.65c0,.91-.85,1.52-2.21,1.62v1.03h3.39v.86h-7.73Zm.48-5.54v-.86h6.77v.86h-6.77Zm3.39,1.2c-.89,0-1.68.27-1.68.84s.79.85,1.68.85,1.68-.28,1.68-.85-.79-.84-1.68-.84Zm-1.53-3.48h3.03v.85h-3.03v-.85Z"/>
            <path class="cls-10" d="m190.68,245.81c-.72-.32-1.59-1.17-1.98-2.05-.26.97-1.18,1.94-2.02,2.3l-.61-.84c1.21-.5,2.11-1.73,2.11-3.16v-1.06h1.01v1.01c0,1.46,1.06,2.6,2.04,2.96l-.57.84Zm-3.03,3.6v-2.86h.99v2.01h4.78v.85h-5.77Zm3.04-5.91v-.88h1.56v-2.14h.99v6.67h-.99v-3.65h-1.56Z"/>
            <path class="cls-10" d="m197.18,248.04l.18-.79c.35.24.99.42,1.48.42.97,0,1.5-.44,1.5-1.26s-.56-1.18-1.45-1.19h-.63v-.83h.57c.8-.02,1.31-.43,1.31-1.13,0-.77-.46-1.05-1.21-1.05-.5,0-.99.22-1.38.42l-.13-.82c.4-.27,1.14-.49,1.76-.49,1.19,0,1.98.63,1.98,1.74,0,.85-.47,1.37-1.2,1.64.83.18,1.43.67,1.43,1.73,0,1.26-.91,2.09-2.37,2.09-.78,0-1.46-.23-1.82-.5Z"/>
            <path class="cls-10" d="m202.47,245.64v-4.58h.99v1.5h2v-1.51h.99v4.59h-3.97Zm2.99-2.25h-2v1.41h2v-1.41Zm-1.83,6.02v-2.87h.99v2.02h4.79v.85h-5.78Zm3.26-5.53v-.89h1.33v-2.51h.98v6.68h-.98v-3.28h-1.33Z"/>
            <path class="cls-10" d="m213.99,249.61v-2.15h4.72v-.54h-4.74v-.81h2.39v-.6h-3.36v-.82h7.73v.82h-3.39v.6h2.36v2.1h-4.73v.6h5.06v.79h-6.04Zm5.99-5.2c-1.33-.15-2.64-.67-3.12-1.38-.46.73-1.73,1.26-3.12,1.38l-.41-.85c1.32-.01,2.6-.46,2.97-1.11h-2.51v-.82h6.17v.82h-2.49c.39.64,1.71,1.08,2.92,1.1l-.4.86Zm-4.52-3.99h2.8v.82h-2.8v-.82Z"/>
            <path class="cls-10" d="m227.72,244.93h1.32v.86h-3.39v3.89h-.98v-3.89h-3.36v-.86h5.47c.16-.82.23-1.99.24-3.06h-4.73v-.87h5.72c0,1.54-.08,2.83-.29,3.92Z"/>
            <path class="cls-10" d="m232.38,245.2v-4.24h.99v1.33h2.02v-1.35h.98v4.26h-3.98Zm3.62,4.47c-1.82,0-2.87-.72-2.87-1.82s1.05-1.84,2.87-1.84,2.89.73,2.89,1.84-1.05,1.82-2.89,1.82Zm-.61-6.55h-2.02v1.24h2.02v-1.24Zm.61,3.76c-1.18,0-1.85.38-1.85.98s.68.97,1.85.97,1.88-.37,1.88-.97-.69-.98-1.88-.98Zm2.78-3.26v2.27h-.99v-5.4h.99v2.25h1.25v.88h-1.25Z"/>
            <path class="cls-10" d="m240.38,242.76v-.84h4.95v.84h-4.95Zm2.49,3.34c-1.14,0-2.02-.61-2.02-1.52s.87-1.51,2.02-1.51,2.01.61,2.01,1.52-.87,1.51-2.01,1.51Zm1.43,3.6c-1.83,0-2.87-.64-2.87-1.64s1.04-1.63,2.87-1.63,2.88.65,2.88,1.63-1.04,1.64-2.88,1.64Zm-2.68-9.14h2.51v.84h-2.51v-.84Zm1.25,3.3c-.56,0-1.06.27-1.06.72s.51.73,1.06.73,1.04-.28,1.04-.73-.49-.72-1.04-.72Zm-.43,4.21c0,.5.67.83,1.86.83s1.87-.33,1.87-.83-.67-.83-1.87-.83-1.86.34-1.86.83Zm5.91-3.13h-1.26v1.28h-.99v-5.75h.99v1.62h1.26v.86h-1.26v1.13h1.26v.87Z"/>
            <path class="cls-10" d="m254.31,247.05h-2.96v-.68l3.18-4.99h.73v4.84h1.02v.83h-1.02v1.43h-.95v-1.43Zm.01-.83v-3.05l-1.94,3.05h1.94Z"/>
            <path class="cls-10" d="m257.08,245.2v-.5c0-2.5,1.16-3.38,2.49-3.38s2.42.89,2.42,3.33v.53c0,2.43-1.09,3.36-2.44,3.36s-2.47-.97-2.47-3.35Zm3.88.09v-.64c0-1.7-.48-2.48-1.4-2.48s-1.42.74-1.42,2.41v.64c0,1.68.48,2.48,1.41,2.48s1.41-.69,1.41-2.42Z"/>
            <path class="cls-10" d="m263.22,245.2v-.5c0-2.5,1.16-3.38,2.49-3.38s2.42.89,2.42,3.33v.53c0,2.43-1.09,3.36-2.44,3.36s-2.47-.97-2.47-3.35Zm3.88.09v-.64c0-1.7-.48-2.48-1.4-2.48s-1.42.74-1.42,2.41v.64c0,1.68.48,2.48,1.41,2.48s1.41-.69,1.41-2.42Z"/>
            <path class="cls-10" d="m269.54,241.36h1.43l1.72,5.64h.03l1.72-5.64h1.41v7.07h-.99v-5.71h-.02l-1.77,5.71h-.87l-1.74-5.71h-.04v5.71h-.88v-7.07Z"/>
            <path class="cls-10" d="m279.82,241.12h4.51v.85h-1.72v.03c0,1.37.96,2.36,1.96,2.69l-.55.84c-.7-.3-1.54-1.02-1.91-1.89-.25.92-1.17,1.81-2.03,2.15l-.6-.82c1.2-.48,2.11-1.56,2.11-2.92v-.08h-1.79v-.85Zm6.67,5.22v3.34h-.99v-2.51h-4.78v-.84h5.77Zm-1-.47v-5.38h.99v5.38h-.99Z"/>
            <path class="cls-10" d="m288.13,241.15h4.51v.85h-1.71v.19c0,1.37.95,2.44,1.95,2.79l-.54.85c-.71-.3-1.54-1.09-1.92-1.94-.25.89-1.18,1.85-2.03,2.19l-.59-.83c1.2-.47,2.12-1.65,2.12-2.99v-.25h-1.8v-.85Zm1.03,8.27v-2.9h.98v2.05h4.84v.85h-5.82Zm4.65-2.27v-6.67h.98v6.67h-.98Z"/>
          </g>
          <g>
            <path class="cls-12" d="m363.77,281.47h-1.99v5.25h-3.18v-5.25h-2.01l3.6-3.89,3.59,3.89Z"/>
            <path class="cls-12" d="m370.76,287.19v-3.35h-3.44v-.87h7.91v.87h-3.47v3.35h-1Zm1.07-8.14c.18,1.16,1.72,2.02,3.03,2.16l-.45.86c-1.23-.19-2.68-1.08-3.12-1.94-.42.92-1.84,1.77-3.12,1.99l-.48-.86c1.35-.15,2.9-1.04,3.08-2.21h-2.7v-.88h6.45v.88h-2.66Z"/>
            <path class="cls-12" d="m380.51,285.37c-.88-.42-1.88-1.52-2.16-2.44-.24.96-1.13,2.12-2.15,2.67l-.63-.79c1.33-.75,2.24-2.04,2.24-3.94v-.04h-1.81v-.86h4.64v.86h-1.79v.04c0,1.9.97,3.07,2.19,3.7l-.53.8Zm-3.51-7.04h2.61v.85h-2.61v-.85Zm5.62,3.21h1.32v.91h-1.32v4.75h-1.01v-9.41h1.01v3.75Z"/>
            <path class="cls-12" d="m384.43,278.39h4.61v.9h-1.75v.03c0,1.38.97,2.43,1.98,2.78l-.55.86c-.74-.32-1.57-1.06-1.96-1.93-.25.92-1.19,1.84-2.07,2.2l-.59-.84c1.23-.49,2.15-1.62,2.15-3.01v-.07h-1.83v-.9Zm3.83,8.81c-1.87,0-2.96-.74-2.96-1.86s1.09-1.87,2.96-1.87,2.98.73,2.98,1.87-1.1,1.86-2.98,1.86Zm0-2.85c-1.22,0-1.93.36-1.93.99s.71.98,1.93.98,1.95-.37,1.95-.98-.72-.99-1.95-.99Zm2.86-3.34v2.34h-1.01v-5.56h1.01v2.32h1.3v.9h-1.3Z"/>
            <path class="cls-12" d="m397.88,282.57c-1.27,0-2.24-.81-2.24-2.13s.97-2.23,2.24-2.23,2.24.91,2.24,2.23-.96,2.13-2.24,2.13Zm0-3.46c-.7,0-1.23.51-1.23,1.31s.54,1.26,1.23,1.26,1.24-.46,1.24-1.26-.53-1.31-1.24-1.31Zm-.99,7.97v-3.75h1.01v.98h3.7v-1h1v3.77h-5.72Zm4.72-1.9h-3.7v1.02h3.7v-1.02Zm0-2.37v-5.03h1v5.03h-1Z"/>
            <path class="cls-12" d="m410.46,282.34h1.35v.88h-3.47v3.98h-1v-3.98h-3.44v-.88h5.6c.17-.83.24-2.04.25-3.12h-4.84v-.89h5.86c0,1.57-.08,2.89-.29,4.01Z"/>
          </g>
          <g>
            <polygon class="cls-4" points="463.02 216.73 443.16 205.19 423.24 216.63 443.1 228.17 463.02 216.73"/>
            <polygon class="cls-6" points="443.1 228.17 443.05 251.14 462.97 239.7 463.02 216.73 443.1 228.17"/>
            <polygon class="cls-8" points="423.24 216.63 423.18 239.6 443.05 251.14 443.1 228.17 423.24 216.63"/>
          </g>
          <polygon class="cls-14" points="580.23 271.45 -42.06 270.01 -42.06 259.41 580.23 260.85 580.23 271.45"/>
          <polygon class="cls-14" points="38.16 330.23 15.45 -27.79 25.91 -27.79 48.62 330.23 38.16 330.23"/>
        </g>
        <g>
          <rect class="cls-12" x="528.32" y="277.9" width="3.61" height="3.61" transform="translate(-42.5 456.8) rotate(-45)"/>
          <g>
            <path class="cls-12" d="m539.43,280.18c-.68-.31-1.54-1.06-1.9-1.91-.25.94-1.12,1.77-1.96,2.14l-.59-.81c1.2-.51,2.05-1.58,2.05-2.96v-.78h.99v.74c0,1.4,1.02,2.44,1.96,2.78l-.55.8Zm-3.13,4.13v-3.36h5.33v3.36h-5.33Zm4.37-2.55h-3.4v1.74h3.4v-1.74Zm.96-3.31v2.05h-.96v-5.03h.96v2.12h1.22v.86h-1.22Z"/>
            <path class="cls-12" d="m543.24,283.36v-.83h3.27v-1c-1.3-.12-2.11-.7-2.11-1.58,0-.97,1.03-1.61,2.61-1.61s2.61.63,2.61,1.61c0,.89-.83,1.48-2.15,1.58v1h3.3v.83h-7.52Zm.47-5.39v-.83h6.59v.83h-6.59Zm3.3,1.17c-.87,0-1.63.26-1.63.81s.76.83,1.63.83,1.64-.27,1.64-.83-.77-.81-1.64-.81Zm-1.49-3.38h2.95v.82h-2.95v-.82Z"/>
            <path class="cls-12" d="m551.87,282.75l-.6-.78c1.92-.94,3.14-2.82,3.3-4.7h-2.81v-.84h3.84c-.07,2.77-1.33,4.91-3.73,6.33Zm5.92-2.92v4.6h-.96v-8.95h.96v3.5h1.23v.85h-1.23Z"/>
            <path class="cls-12" d="m559.4,280.85v-.83h7.53v.83h-7.53Zm.96,3.33v-2.58h.96v1.76h4.72v.83h-5.68Zm.03-5.13v-3.21h5.57v.83h-4.61v1.56h4.69v.83h-5.65Z"/>
            <path class="cls-12" d="m539.57,294.29c-.71-.49-1.68-1.64-1.98-2.62-.29,1.07-1.12,2.19-2.04,2.78l-.59-.75c1.3-.9,2.12-2.38,2.12-4.09v-1.31h.98v1.24c0,1.72.85,3.15,2.07,3.97l-.57.77Zm2.06-3.27h1.25v.86h-1.25v4.59h-.96v-8.95h.96v3.49Z"/>
            <path class="cls-12" d="m543.74,294.83l-.6-.78c1.9-.94,3.12-2.85,3.28-4.73h-2.81v-.84h3.84c-.06,2.77-1.32,4.95-3.71,6.36Zm5.41,1.65v-4.55h-1.7v-.86h1.7v-3.54h.95v8.95h-.95Z"/>
            <path class="cls-12" d="m556.56,294.11c-.92.18-2.22.27-3.73.28h-1.03s0-3.61,0-3.61h2.82v-1.65h-2.86v-.82h3.81v3.29h-2.82v1.94c.99,0,2.63-.06,3.7-.28l.1.84Zm.66,2.37v-8.95h.95v8.95h-.95Z"/>
          </g>
        </g>
      </g>
      <g>
        <g>
          <g>
            <path class="cls-11" d="m329.83,190.25v-.06c0-3.73,2.69-7.2,6.89-7.2,2.18,0,3.54.67,4.95,1.82l-.45.52c-1.2-1.01-2.51-1.7-4.53-1.7-3.72,0-6.16,3.14-6.16,6.55v.04c0,3.6,2.33,6.58,6.25,6.58,1.93,0,3.64-.85,4.76-1.79v-3.78h-4.94v-.63h5.6v4.69c-1.3,1.17-3.2,2.13-5.45,2.13-4.37,0-6.92-3.26-6.92-7.17"/>
            <path class="cls-11" d="m362.65,183.14h.64l6.63,14.04h-.72l-1.91-4.06h-8.63l-1.91,4.06h-.69l6.59-14.04Zm4.35,9.35l-4.04-8.56-3.98,8.56h8.02Z"/>
            <polygon class="cls-11" points="372.36 183.24 373.01 183.24 378.91 191.72 384.77 183.24 385.41 183.24 385.41 197.18 384.75 197.18 384.75 184.42 378.91 192.77 378.83 192.77 373.03 184.42 373.03 197.18 372.36 197.18 372.36 183.24"/>
            <polygon class="cls-11" points="389.56 183.24 399.36 183.24 399.36 183.86 390.22 183.86 390.22 190.6 399.36 190.6 399.36 191.21 390.22 191.21 390.22 196.56 399.36 196.56 399.36 197.18 389.56 197.18 389.56 183.24"/>
            <path class="cls-11" d="m413.88,190.25v-.06c0-3.89,2.93-7.2,6.9-7.2,2.59,0,3.98.96,5.37,2.23l-.49.5c-1.14-1.13-2.57-2.09-4.9-2.09-3.54,0-6.17,2.95-6.17,6.55v.04c0,3.6,2.65,6.57,6.19,6.57,2.18,0,3.74-.95,4.97-2.23l.47.44c-1.31,1.35-3.01,2.4-5.48,2.4-3.93,0-6.86-3.19-6.86-7.17"/>
            <polygon class="cls-11" points="433.25 191.47 427.3 183.24 428.16 183.24 433.62 190.87 439.01 183.24 439.83 183.24 433.92 191.47 433.92 197.18 433.25 197.18 433.25 191.47"/>
            <path class="cls-11" d="m349.81,191.15c2.57-.23,4.38-1.61,4.38-3.95v-.05c0-1.03-.39-1.93-1.02-2.58-.86-.83-2.21-1.34-3.99-1.34h-4.65v.62h4.63c2.76,0,4.37,1.25,4.37,3.34v.04c0,1.95-1.65,3.36-4.5,3.36h-4.5v.63h4.53l4.53,5.95h.86l-4.63-6.03Z"/>
            <path class="cls-11" d="m407.85,191.15c2.55-.23,4.38-1.61,4.38-3.95v-.05c0-1.03-.38-1.93-1.04-2.58-.84-.83-2.18-1.34-3.96-1.34h-4.68v.62h4.63c2.74,0,4.36,1.25,4.36,3.34v.04c0,1.95-1.62,3.36-4.5,3.36h-4.49v.63h4.55l4.54,5.95h.85l-4.65-6.03Z"/>
          </g>
          <g>
            <path class="cls-7" d="m345.81,202.83h1.73c.46,0,.83.13,1.06.36.17.17.26.39.26.65h0c0,.54-.32.81-.64.95.48.14.87.42.87.98h0c0,.71-.58,1.12-1.47,1.12h-1.8v-4.05Zm2.58,1.07c0-.4-.32-.66-.9-.66h-1.23v1.4h1.2c.55,0,.93-.25.93-.72h0Zm-.85,1.14h-1.28v1.43h1.36c.61,0,1-.27,1-.72h0c0-.45-.37-.71-1.08-.71Z"/>
            <path class="cls-7" d="m351.49,202.8h.43l1.85,4.08h-.49l-.47-1.07h-2.21l-.48,1.07h-.47l1.85-4.08Zm1.13,2.59l-.92-2.06-.93,2.06h1.85Z"/>
            <path class="cls-7" d="m354.56,202.83h.43l2.55,3.25v-3.25h.45v4.05h-.36l-2.62-3.32v3.32h-.45v-4.05Z"/>
            <path class="cls-7" d="m362.83,207l-.54-.48c-.34.27-.78.43-1.27.43-1.23,0-2.06-.97-2.06-2.08h0c0-1.13.84-2.11,2.07-2.11s2.06.97,2.06,2.08h0c0,.52-.18,1-.48,1.37l.53.45-.31.34Zm-.86-.78l-.76-.65.31-.34.76.69c.22-.29.34-.65.34-1.06h0c0-.93-.67-1.69-1.6-1.69s-1.59.74-1.59,1.66h0c0,.93.67,1.68,1.6,1.68.36,0,.68-.11.94-.3Z"/>
            <path class="cls-7" d="m364,205.18v-2.36h.46v2.33c0,.87.47,1.37,1.24,1.37s1.22-.45,1.22-1.34v-2.36h.46v2.32c0,1.18-.68,1.79-1.69,1.79s-1.69-.61-1.69-1.76Z"/>
            <path class="cls-7" d="m368.46,202.83h2.93v.42h-2.47v1.38h2.21v.42h-2.21v1.42h2.5v.42h-2.96v-4.05Z"/>
            <path class="cls-7" d="m373.41,203.25h-1.36v-.42h3.18v.42h-1.36v3.63h-.46v-3.63Z"/>
            <path class="cls-7" d="m380.12,206.31c-.37.4-.8.63-1.33.63-.73,0-1.27-.46-1.27-1.13h0c0-.55.36-.94.98-1.18-.28-.32-.41-.57-.41-.89h0c0-.54.43-.97,1.07-.97.57,0,.98.41.98.91h0c0,.53-.36.86-.96,1.07l.93.94c.18-.26.34-.57.49-.9l.38.17c-.18.38-.36.73-.58,1.02l.71.72-.35.27-.64-.65Zm-.28-.28l-1.08-1.12c-.54.2-.78.53-.78.87h0c0,.45.35.78.85.78.38,0,.72-.2,1.01-.53Zm-.12-2.32h0c0-.34-.24-.57-.57-.57-.36,0-.61.25-.61.58h0c0,.25.1.43.41.76.52-.17.78-.42.78-.77Z"/>
            <g>
              <path class="cls-7" d="m383.42,204.87h0c0-1.16.86-2.11,2.05-2.11.74,0,1.18.26,1.58.64l-.31.34c-.34-.32-.72-.56-1.27-.56-.9,0-1.57.73-1.57,1.66h0c0,.95.68,1.68,1.57,1.68.56,0,.92-.21,1.31-.58l.3.3c-.42.43-.89.71-1.62.71-1.17,0-2.03-.92-2.03-2.08Z"/>
              <path class="cls-7" d="m387.58,204.87h0c0-1.13.84-2.11,2.07-2.11s2.06.97,2.06,2.08h0c0,1.13-.84,2.11-2.07,2.11s-2.06-.97-2.06-2.08Zm3.66,0h0c0-.93-.67-1.69-1.6-1.69s-1.59.74-1.59,1.66h0c0,.93.67,1.68,1.6,1.68s1.59-.74,1.59-1.66Z"/>
              <path class="cls-7" d="m392.68,202.83h.43l2.55,3.25v-3.25h.45v4.05h-.36l-2.62-3.32v3.32h-.45v-4.05Z"/>
              <path class="cls-7" d="m396.91,202.83h.51l1.44,3.49,1.45-3.49h.49l-1.74,4.08h-.41l-1.74-4.08Z"/>
              <path class="cls-7" d="m401.6,202.83h2.93v.42h-2.47v1.38h2.21v.42h-2.21v1.42h2.5v.42h-2.96v-4.05Z"/>
              <path class="cls-7" d="m405.48,202.83h.43l2.55,3.25v-3.25h.45v4.05h-.36l-2.62-3.32v3.32h-.45v-4.05Z"/>
              <path class="cls-7" d="m411.13,203.25h-1.36v-.42h3.18v.42h-1.36v3.63h-.46v-3.63Z"/>
              <path class="cls-7" d="m413.85,202.83h.46v4.05h-.46v-4.05Z"/>
              <path class="cls-7" d="m415.31,204.87h0c0-1.13.84-2.11,2.07-2.11s2.06.97,2.06,2.08h0c0,1.13-.84,2.11-2.07,2.11s-2.06-.97-2.06-2.08Zm3.66,0h0c0-.93-.67-1.69-1.6-1.69s-1.59.74-1.59,1.66h0c0,.93.67,1.68,1.6,1.68s1.59-.74,1.59-1.66Z"/>
              <path class="cls-7" d="m420.42,202.83h.43l2.55,3.25v-3.25h.45v4.05h-.36l-2.62-3.32v3.32h-.45v-4.05Z"/>
            </g>
          </g>
        </g>
        <g>
          <path class="cls-10" d="m371.5,214.65c-.29,0-.56-.05-.81-.16-.25-.11-.46-.26-.64-.44-.18-.19-.32-.41-.43-.66-.1-.26-.15-.53-.15-.82h0c0-.3.05-.57.15-.82.1-.26.24-.48.43-.67.18-.19.4-.34.65-.45.25-.11.53-.17.82-.17.19,0,.35.02.5.05.15.03.29.07.41.13s.25.12.35.2c.11.08.21.17.31.26l-.31.34c-.17-.16-.36-.3-.56-.4-.2-.1-.44-.16-.72-.16-.22,0-.43.04-.62.13-.19.09-.36.2-.5.35s-.25.33-.33.53c-.08.2-.12.42-.12.65h0c0,.25.04.47.12.67.08.2.19.38.33.53.14.15.31.27.5.36s.4.13.62.13c.28,0,.52-.05.72-.15.2-.1.4-.25.59-.43l.3.3c-.1.11-.21.21-.33.29-.11.09-.24.16-.37.22s-.27.11-.42.15c-.15.03-.32.05-.5.05Z"/>
          <path class="cls-10" d="m373.95,210.52h2.93v.41h-2.48v1.4h2.22v.41h-2.22v1.43h2.51v.41h-2.96v-4.06Z"/>
          <path class="cls-10" d="m377.87,210.52h.43l2.56,3.25v-3.25h.45v4.06h-.37l-2.62-3.33v3.33h-.45v-4.06Z"/>
          <path class="cls-10" d="m383.55,210.95h-1.36v-.42h3.18v.42h-1.36v3.64h-.46v-3.64Z"/>
          <path class="cls-10" d="m386.27,210.52h1.75c.25,0,.47.04.67.11s.36.17.48.3c.1.1.18.22.23.35.05.14.08.28.08.45h0c0,.18-.03.33-.08.47-.05.13-.13.25-.23.35-.1.1-.22.18-.35.24-.14.06-.28.11-.44.14l1.25,1.66h-.56l-1.18-1.58h-1.16v1.58h-.46v-4.06Zm1.71,2.07c.15,0,.29-.02.42-.06.13-.04.24-.09.33-.17.09-.07.17-.16.22-.26.05-.1.08-.22.08-.35h0c0-.26-.09-.46-.27-.6-.18-.14-.44-.21-.77-.21h-1.26v1.65h1.25Z"/>
          <path class="cls-10" d="m391.99,210.5h.43l1.85,4.09h-.49l-.48-1.07h-2.21l-.48,1.07h-.47l1.85-4.09Zm1.13,2.6l-.92-2.07-.93,2.07h1.85Z"/>
          <path class="cls-10" d="m395.1,210.52h.46v3.64h2.29v.42h-2.74v-4.06Z"/>
        </g>
      </g>
    </g>
  </g>
</svg>